<?xml version="1.0" encoding="utf-8"?>
<!-- Generator: Adobe Illustrator 24.2.1, SVG Export Plug-In . SVG Version: 6.00 Build 0)  -->
<svg version="1.1" id="ec500484-8e35-4be5-8191-25e4427db5df"
	 xmlns="http://www.w3.org/2000/svg" xmlns:xlink="http://www.w3.org/1999/xlink" x="0px" y="0px" viewBox="0 0 1145.7 770.6"
	 style="enable-background:new 0 0 1145.7 770.6;" xml:space="preserve">
<style type="text/css">
	.st0{opacity:0.1;enable-background:new    ;}
	.st1{opacity:0.1;fill:#A96237;enable-background:new    ;}
	.st2{opacity:0.1;fill:#E89C6D;enable-background:new    ;}
	.st3{fill:#D97750;}
	.st4{fill:#D7B97A;}
	.st5{fill:#05A551;}
	.st6{fill:#0E596E;}
	.st7{opacity:0.1;fill:none;stroke:#1BB1DC;stroke-width:3;stroke-miterlimit:10;enable-background:new    ;}
	.st8{fill:#FFFFFF;}
</style>
<ellipse class="st0" cx="771.8" cy="760.6" rx="142" ry="10"/>
<path class="st1" d="M1145.7,454.1c-0.1,148-120.2,268-268.2,267.9c-14.2,0-28.3-1.1-42.3-3.4H410.5c-16.4,2.3-32.9,3.4-49.5,3.4
	c-11.9,0-23.6-0.6-35.2-1.7C140.8,702.3-0.2,546.8,0,361C0,161.6,161.6,0,361,0c160.6,0,296.6,104.8,343.5,249.8
	c48.4-41.1,109.8-63.7,173.3-63.6C1025.8,186.2,1145.7,306.1,1145.7,454.1z"/>
<path class="st2" d="M1042.8,665.2c-58.8,45.9-134,65.2-207.6,53.5H410.5c-16.4,2.3-32.9,3.4-49.5,3.4c-11.9,0-23.6-0.6-35.2-1.7
	C182,706.2,60.5,607.8,16.8,470.1c34.6-73.9,123.4-126.5,227.6-126.5c101.5,0,188.5,49.9,224.8,120.9c17.9-3.3,36-4.9,54.2-4.9
	c105.2,0,194.8,53.7,228.6,128.7c28-8.5,57.1-12.8,86.4-12.7C924.1,575.6,999.6,611.3,1042.8,665.2z"/>
<path class="st3" d="M351.7,673.2c0,25.6-9.8,39.5-25.9,47.1c-60.6-5.9-118.8-27-169-61.6c1.3-8.7,3.8-17.2,7.3-25.3l45.8,14.2
	l-40.8-24c5.5-9.4,12.6-17.8,20.9-24.9l76.9,23.9l-60.3-35.4c47.5-26,107-8.6,133,38.8c2.4,4.5,4.5,9.1,6.3,13.9l0.2,0.6
	c0.2,0.5,0.3,0.9,0.5,1.4c0.5,1.6,1,3.2,1.5,4.8c0.2,0.6,0.3,1.2,0.5,1.8s0.3,1.1,0.4,1.7s0.2,1,0.3,1.5c0.1,0.3,0.1,0.6,0.2,0.9
	c0.1,0.5,0.2,1,0.3,1.5c0.1,0.7,0.3,1.4,0.4,2.1s0.3,1.5,0.4,2.2s0.2,1.6,0.3,2.4s0.2,1.5,0.3,2.2c0,0.2,0,0.5,0.1,0.7
	c0.1,0.6,0.1,1.3,0.2,1.9c0,0.1,0,0.2,0,0.3c0.1,0.8,0.1,1.6,0.1,2.4c0,0.8,0.1,1.6,0.1,2.3c0,0.1,0,0.2,0,0.2
	C351.7,671.6,351.7,672.4,351.7,673.2z"/>
<path class="st0" d="M351.7,673.2c0,25.6-9.8,39.5-25.9,47.1c-39.2-3.8-77.5-14-113.4-30.2l1.6-1.1c7.4-4.9,15.1-9.9,23.8-11.6
	c7.7-1.5,15.6-0.2,23.4-0.7c13.6-0.8,26.3-6.7,35.8-16.4c5.6-5.8,10-12.8,16.6-17.2c7.2-4.7,16.4-5.8,24.9-4.6
	c2.5,0.4,5,0.9,7.4,1.5l0.2,0.6c0.2,0.5,0.3,0.9,0.5,1.4c0.5,1.6,1,3.2,1.5,4.8c0.2,0.6,0.3,1.2,0.5,1.8s0.3,1.1,0.4,1.7
	s0.2,1,0.3,1.5c0.1,0.3,0.1,0.6,0.2,0.9c0.1,0.5,0.2,1,0.3,1.5c0.1,0.7,0.3,1.4,0.4,2.1s0.3,1.5,0.4,2.2s0.2,1.6,0.3,2.4
	s0.2,1.5,0.3,2.2c0,0.2,0,0.5,0.1,0.7c0.1,0.6,0.1,1.3,0.2,1.9c0,0.1,0,0.2,0,0.3c0.1,0.8,0.1,1.6,0.1,2.4c0,0.8,0.1,1.6,0.1,2.3
	c0,0.1,0,0.2,0,0.2C351.7,671.6,351.7,672.4,351.7,673.2z"/>
<path class="st4" d="M935.5,689.9c0,2.6-0.3,5.2-0.8,7.8c-0.1,0.5-0.2,1-0.3,1.4c-2.8,11.4-10.8,19.7-20.4,20.3c-0.3,0-0.6,0-1,0
	c-10.1,0-18.7-8.7-21.5-20.7c-0.1-0.3-0.2-0.6-0.2-1c-0.5-2.6-0.8-5.2-0.8-7.8c0-16.3,10.1-29.5,22.5-29.5S935.5,673.6,935.5,689.9z
	"/>
<path class="st0" d="M935.5,689.9c0,2.6-0.3,5.2-0.8,7.8c-0.1,0.5-0.2,1-0.3,1.4c-0.3,0-0.7,0-1,0c-2.5-0.1-4.9-0.5-7.4-1
	c-2.1,0.7-4.3,1.2-6.6,1.5c-1.7,0.3-3.4,0.4-5.1,0.5c-0.6,0-1.2,0-1.7,0c-2.1,0-4.1-0.1-6.2-0.4c-3.3-0.4-6.5-1.2-9.7-2.4
	c-1.7,0.6-3.5,1-5.2,1.4c-0.1-0.3-0.2-0.6-0.2-1c-0.5-2.6-0.8-5.2-0.8-7.8c0-16.3,10.1-29.5,22.5-29.5S935.5,673.6,935.5,689.9z"/>
<path class="st5" d="M983.5,635c0-7.2-1.7-14.2-4.9-20.6l-26.5,8.2l23.2-13.7c-7.9-11.4-20.5-18.6-34.4-19.6
	c-1.1-1.6-2.3-3.2-3.6-4.7l-38,11.8l31.2-18.3c-20-15.4-48.7-11.6-64.1,8.4c-3.6,4.8-6.3,10.2-7.9,16l32.5,37.5l-35.3-25.5
	c-20.6,14.6-25.5,43.2-10.8,63.8c11.7,16.4,32.7,23.3,51.8,16.9c9.4,3.5,19.7,3.7,29.3,0.8c24.7,5.4,49.1-10.2,54.5-34.9
	c0.7-3.2,1.1-6.5,1.1-9.8c0-1,0-2-0.1-3C982.8,644,983.5,639.5,983.5,635z"/>
<path class="st0" d="M982.7,643.5c-14-2.6-28.3-2.8-42.3-0.5c-15.9,2.6-32.1,8.4-47.7,4.2c-9.1-2.5-17-8.2-25.9-11.4
	c-8.6-3-17.9-3.6-26.8-1.6c-9.7,23.3,1.3,50.1,24.6,59.9c10.2,4.3,21.6,4.7,32.1,1.2c9.4,3.5,19.7,3.7,29.3,0.8
	c24.7,5.4,49.1-10.2,54.5-34.9c0.7-3.2,1.1-6.5,1.1-9.8c0-1,0-2-0.1-3C982,646.7,982.4,645.1,982.7,643.5z"/>
<path d="M538.8,131.8h33.7c2.1,0,3.9,1.7,3.9,3.9v0.7c0,2.1-1.7,3.9-3.9,3.9h-33.7c-2.1,0-3.9-1.7-3.9-3.9v-0.7
	C534.9,133.5,536.7,131.8,538.8,131.8z"/>
<circle class="st6" cx="587.3" cy="136" r="4.8"/>
<path class="st7" d="M808.6,392.6c-1.5-0.9-3.5,0-4.5,1.4c-0.9,1.5-1.5,3.2-1.6,4.9c-0.6,3.8-1,8.2,1.6,11
	c-4.5-12.9-15.9-22.2-29.5-23.9"/>
<circle class="st8" cx="789.7" cy="454.2" r="1.4"/>
</svg>
