<svg id="Layer_1" enable-background="new 0 0 510 510" height="512" viewBox="0 0 510 510" width="512" xmlns="http://www.w3.org/2000/svg"><g><path d="m493.827 165.434-122.088-137.203c-34.978-18.043-74.669-28.231-116.739-28.231-140.833 0-255 114.167-255 255l144.553 200.818 218.915 30.029c86.592-40.758 146.532-128.803 146.532-230.847 0-31.518-5.718-61.7-16.173-89.566z" fill="#fb3d80"/><path d="m391.705 39.713v19.926c-41.993.141-78.001 25.689-93.452 62.078h-129.719-26.029-28.423c-12.646 0-22.898 10.252-22.898 22.898v103.035c0 24.449-35.712 27.491-39.629 3.357-.172-1.062-.338-2.124-.497-3.187-4.602-30.811-49.757-28.075-51 2.577-.023 1.318-.047 2.637-.05 3.96-.35 140.694 113.323 255.146 254.097 255.63.3.001.598.011.898.011.019 0 .038-.001.056-.001 37.006-.008 74.026-7.996 108.402-24.168 14.403-7.121 6.847-29.16-9.085-25.919-.36.073-.72.146-1.08.217v-4.354c0-12.905-10.462-23.367-23.367-23.367v-17.485c0-17.921 14.528-32.45 32.45-32.45h75.708c12.646 0 22.898-10.252 22.898-22.898v-123.09c11.803-10.856 20.855-24.264 26.492-39.289 4.952-13.231 6.065-25.645 6.333-31.757-19.576-52.173-55.751-96.228-102.105-125.724zm-169.465 392.696h-23.367v10.339c-5.899-2.651-11.679-5.52-17.33-8.596-25.036-13.63-15.325-51.679 13.181-51.679 15.196 0 27.515 12.319 27.515 27.515v22.421z" fill="#e21e69"/><g><path d="m275.323 353.402v19.557c0 10.801-8.756 19.557-19.557 19.557-10.801 0-19.557-8.756-19.557-19.557v-19.557h-34.288v72.22h107.689v-72.22z" fill="#43265c"/><path d="m440.667 121.492c0-12.646-10.252-22.898-22.898-22.898h-295.582c.002.098.016.194.016.292v260.465h295.566c12.646 0 22.898-10.252 22.898-22.898z" fill="#5c2481"/><path d="m125.317 336.453v-214.96c0-12.646 10.252-22.898 22.898-22.898h-54.451c-12.646 0-22.898 10.252-22.898 22.898v214.96c0 12.646 10.252 22.898 22.898 22.898h54.451c-12.646 0-22.898-10.252-22.898-22.898z" fill="#43265c"/><path d="m144.553 127.471h265.782v182.864h-265.782z" fill="#fff"/><path d="m178.555 409.285h154.422v39.76h-154.422z" fill="#43265c"/><path d="m332.977 449.046h-91.829c-10.979 0-19.88-8.901-19.88-19.88 0-10.979 8.901-19.88 19.88-19.88h91.829z" fill="#5c2481"/></g><path d="m259.15 284.125c0-12.531-10.158-22.689-22.689-22.689h-44.065c-10.848 0-19.641-8.794-19.641-19.641 0-10.848 8.794-19.641 19.641-19.641h.791c12.531 0 22.689-10.158 22.689-22.689s-10.158-22.689-22.689-22.689c-11.284 0-20.432-9.148-20.432-20.432 0-15.945-12.926-28.871-28.871-28.871h-42.686v181.848h70.29c.429 0 .847.034 1.266.065v-2.57h63.707c12.53-.002 22.689-10.16 22.689-22.691z" fill="#b6fff6"/><path d="m101.197 306.814h309.138v23.659h-309.138z" fill="#8757f3"/><g><path d="m371.735 36.511c-56.257 0-101.862 45.605-101.862 101.862l44.036 47.263 68.157 19.246 91.531-66.509c0-56.257-45.606-101.862-101.862-101.862z" fill="#00b7f0"/><path d="m473.597 138.373c0-44.231-28.195-81.869-67.591-95.941v5.254c0 9.797-8.007 17.051-17.475 17.475-7.836.351-14.69-5.63-16.796-12.901v86.559c0 44.301-66.17 46.536-68.642 2.303-.051-.913-.092-1.83-.123-2.749-.067-2.007-.081-3.979-.045-5.918.397-21.226-31.154-23.056-32.759-1.888-.195 2.576-.295 5.18-.295 7.806 0 56.257 45.605 101.862 101.862 101.862 5.383 0 11.036-.441 16.557-1.344-.003-.001-.005-.001-.008-.002 48.387-7.905 85.315-49.895 85.315-100.516z" fill="#0091c8"/><path d="m494.917 132.821c-2.147-48.559-32.289-89.838-74.688-108.086v108.086z" fill="#fec502"/><path d="m494.11 123.07h-43.873c-13.993 0-25.337-11.344-25.337-25.337v-70.878c-16.194-7.785-34.344-12.148-53.514-12.148v108.363 15.304h123.666c.001-5.183-.323-10.289-.942-15.304z" fill="#ffa50a"/></g></g></svg>